<?xml version="1.0" encoding="UTF-8"?>
<svg version="1.1" xmlns="http://www.w3.org/2000/svg" width="225" height="225">
<path d="M0 0 C74.25 0 148.5 0 225 0 C225 74.25 225 148.5 225 225 C150.75 225 76.5 225 0 225 C0 150.75 0 76.5 0 0 Z " fill="#FEFEFE" transform="translate(0,0)"/>
<path d="M0 0 C1.65 0 3.3 0 5 0 C5 7.26 5 14.52 5 22 C3.02 22 1.04 22 -1 22 C-3.00569659 22.29714023 -5.00822259 22.62061383 -7 23 C-9.88375157 20.11624843 -11.31825682 17.98885835 -11.5 13.9375 C-11 10 -11 10 -9.4375 7.4375 C-6.01492921 5.41906082 -3.77265569 6.12938715 0 7 C0 4.69 0 2.38 0 0 Z " fill="#3E56D4" transform="translate(133,100)"/>
<path d="M0 0 C2.8125 1.625 2.8125 1.625 5 4 C5.8125 7.25 5.8125 7.25 6 10 C2.04 10 -1.92 10 -6 10 C-5.67 10.66 -5.34 11.32 -5 12 C-2.36 12 0.28 12 3 12 C3 13.32 3 14.64 3 16 C2 17 2 17 -1.25 17.3125 C-5 17 -5 17 -7.9375 15.5625 C-10.56450785 12.29864176 -10.66791717 10.22941145 -10.41796875 6.12890625 C-10 4 -10 4 -8.375 1.4375 C-5.25576511 -0.45045796 -3.59388548 -0.58675681 0 0 Z " fill="#1D37CD" transform="translate(114,106)"/>
<path d="M0 0 C2 2 2 2 2.1953125 5.0390625 C2.17210937 6.22242187 2.14890625 7.40578125 2.125 8.625 C2.10695312 9.81351563 2.08890625 11.00203125 2.0703125 12.2265625 C2.04710937 13.14179687 2.02390625 14.05703125 2 15 C-8.00627353 16.58720201 -8.00627353 16.58720201 -11.75 14.375 C-13 12 -13 12 -12.8125 9.3125 C-12 7 -12 7 -11 6 C-8.32941149 5.85884839 -5.67567762 5.95752893 -3 6 C-3 5.34 -3 4.68 -3 4 C-5.64 4 -8.28 4 -11 4 C-10.6875 2.0625 -10.6875 2.0625 -10 0 C-6.25976024 -1.24674659 -3.83399823 -0.76679965 0 0 Z " fill="#1E36CD" transform="translate(162,107)"/>
<path d="M0 0 C0.99 0.66 1.98 1.32 3 2 C3.29296875 5.2578125 3.29296875 5.2578125 3.1875 9.125 C3.16042969 10.40632813 3.13335937 11.68765625 3.10546875 13.0078125 C3.07066406 13.99523437 3.03585938 14.98265625 3 16 C1.23186888 16.24915939 -0.53974982 16.47366632 -2.3125 16.6875 C-3.29863281 16.81511719 -4.28476562 16.94273438 -5.30078125 17.07421875 C-8 17 -8 17 -9.8359375 15.6796875 C-11.45508146 13.34333883 -11.35626025 11.77882998 -11 9 C-9 7 -9 7 -5.5 6.8125 C-2 7 -2 7 0 8 C-0.33 7.01 -0.66 6.02 -1 5 C-3.64 5 -6.28 5 -9 5 C-9 3.68 -9 2.36 -9 1 C-5.98131566 -0.50934217 -3.32702771 -0.17510672 0 0 Z " fill="#0A28D6" transform="translate(52,106)"/>
<path d="M0 0 C9.9609375 -0.1953125 9.9609375 -0.1953125 13 0 C15 2 15 2 15.1953125 5.2578125 C15.16050781 7.17207031 15.16050781 7.17207031 15.125 9.125 C15.10695312 10.40632813 15.08890625 11.68765625 15.0703125 13.0078125 C15.04710937 13.99523437 15.02390625 14.98265625 15 16 C13.68 16 12.36 16 11 16 C10.67 12.37 10.34 8.74 10 5 C8.68 5 7.36 5 6 5 C5.67 8.96 5.34 12.92 5 17 C3.35 17 1.7 17 0 17 C0 11.39 0 5.78 0 0 Z " fill="#5163CC" transform="translate(168,106)"/>
<path d="M0 0 C0.99 0.66 1.98 1.32 3 2 C2.67 2.99 2.34 3.98 2 5 C0.865625 4.979375 -0.26875 4.95875 -1.4375 4.9375 C-4.81575674 4.58422523 -4.81575674 4.58422523 -6 6 C-6.16666667 8.5 -6.16666667 8.5 -6 11 C-4.81575674 12.41577477 -4.81575674 12.41577477 -1.4375 12.0625 C0.2640625 12.0315625 0.2640625 12.0315625 2 12 C2 13.32 2 14.64 2 16 C-0.88861709 17.44430855 -2.79647701 17.37688506 -6 17 C-8.87459336 15.00028288 -10.62907801 13.51060972 -11.484375 10.02734375 C-11.73645855 6.28110213 -11.30563428 4.35956975 -8.875 1.5 C-5.56074794 -0.22917499 -3.68722891 -0.4809429 0 0 Z " fill="#1A33CE" transform="translate(70,106)"/>
<path d="M0 0 C0.99 0 1.98 0 3 0 C3 6.93 3 13.86 3 21 C-4.232197 22.11926858 -4.232197 22.11926858 -8 22 C-10.6875 19.9375 -10.6875 19.9375 -12 17 C-12.25 13.6875 -12.25 13.6875 -12 11 C-10.68 11 -9.36 11 -8 11 C-7.34 12.98 -6.68 14.96 -6 17 C-4.02 17 -2.04 17 0 17 C-0.08378906 16.36191406 -0.16757813 15.72382812 -0.25390625 15.06640625 C-0.35574219 14.24011719 -0.45757812 13.41382812 -0.5625 12.5625 C-0.66691406 11.73878906 -0.77132812 10.91507813 -0.87890625 10.06640625 C-0.91886719 9.38449219 -0.95882812 8.70257813 -1 8 C-0.67 7.67 -0.34 7.34 0 7 C0.04092937 4.66702567 0.04241723 2.33294775 0 0 Z " fill="#011CDE" transform="translate(134,101)"/>
<path d="M0 0 C0 1.32 0 2.64 0 4 C-2.31 4 -4.62 4 -7 4 C-8.00217064 7.58327753 -8.00217064 7.58327753 -7 11 C-4.69 11 -2.38 11 0 11 C0 12.32 0 13.64 0 15 C-4.51618359 16.17420773 -6.32784467 16.39107219 -10.4375 14 C-13 11 -13 11 -13.75 7.5 C-13 4 -13 4 -10.4375 1 C-6.32784467 -1.39107219 -4.51618359 -1.17420773 0 0 Z " fill="#102DD4" transform="translate(88,107)"/>
<path d="M0 0 C0.66 0.99 1.32 1.98 2 3 C1.67 3.33 1.34 3.66 1 4 C0.92851801 5.35243917 0.91600546 6.70834367 0.9375 8.0625 C0.958125 9.361875 0.97875 10.66125 1 12 C0.34 12 -0.32 12 -1 12 C-1.33 12.66 -1.66 13.32 -2 14 C-2.33 13.34 -2.66 12.68 -3 12 C-4.670625 12.061875 -4.670625 12.061875 -6.375 12.125 C-10 12 -10 12 -12 10 C-12.25 7.5 -12.25 7.5 -12 5 C-11.34 4.34 -10.68 3.68 -10 3 C-8.865625 3.020625 -7.73125 3.04125 -6.5625 3.0625 C-3.06124612 3.35637029 -3.06124612 3.35637029 -1.0625 1.5 C-0.711875 1.005 -0.36125 0.51 0 0 Z " fill="#F0F5F9" transform="translate(75,107)"/>
<path d="M0 0 C0.66 0.99 1.32 1.98 2 3 C1.67 3.33 1.34 3.66 1 4 C0.95919217 5.99958364 0.95745644 8.00045254 1 10 C-2.07140568 10.91004613 -4.79899154 11.33694826 -8 11 C-10 8 -10 8 -9.6875 5.375 C-9 3 -9 3 -8 2 C-5.66702567 1.95907063 -3.33294775 1.95758277 -1 2 C-0.67 1.34 -0.34 0.68 0 0 Z " fill="#E9EFF6" transform="translate(89,108)"/>
<path d="M0 0 C2.475 0.495 2.475 0.495 5 1 C7.23167185 0.63143136 7.23167185 0.63143136 9 0 C9 1.32 9 2.64 9 4 C7.68 4.33 6.36 4.66 5 5 C4.67 8.63 4.34 12.26 4 16 C2.68 16 1.36 16 0 16 C0 10.72 0 5.44 0 0 Z " fill="#192AC3" transform="translate(93,106)"/>
<path d="M0 0 C0.99 0.66 1.98 1.32 3 2 C3.29296875 5.2578125 3.29296875 5.2578125 3.1875 9.125 C3.16042969 10.40632813 3.13335937 11.68765625 3.10546875 13.0078125 C3.07066406 13.99523437 3.03585938 14.98265625 3 16 C1.68 15.67 0.36 15.34 -1 15 C-0.01 12.03 0.98 9.06 2 6 C-0.75078884 5.08307039 -2.35948913 4.89113917 -5.1875 4.9375 C-6.445625 4.958125 -7.70375 4.97875 -9 5 C-9 3.68 -9 2.36 -9 1 C-5.98131566 -0.50934217 -3.32702771 -0.17510672 0 0 Z " fill="#253ECE" transform="translate(52,106)"/>
<path d="M0 0 C3.67176009 -0.34155908 5.58028931 -0.24249951 8.8125 1.625 C11.40674134 4.44160489 11.74327938 6.2347642 12 10 C8.04 10 4.08 10 0 10 C0 9.67 0 9.34 0 9 C2.64 9 5.28 9 8 9 C8 8.34 8 7.68 8 7 C5.36 7 2.72 7 0 7 C1.75 3.125 1.75 3.125 4 2 C2.68 1.34 1.36 0.68 0 0 Z " fill="#2D47D3" transform="translate(108,106)"/>
<path d="M0 0 C0.99 0.66 1.98 1.32 3 2 C3.41620943 5.69593971 3.13007474 9.27119087 3 13 C-0.63 13.33 -4.26 13.66 -8 14 C-10 11 -10 11 -10 7 C-9.34 7 -8.68 7 -8 7 C-7.67 7.99 -7.34 8.98 -7 10 C-5.35 10 -3.7 10 -2 10 C-2 8.68 -2 7.36 -2 6 C-1.34 6 -0.68 6 0 6 C0 4.02 0 2.04 0 0 Z " fill="#0127DD" transform="translate(161,109)"/>
<path d="M0 0 C0.99 0 1.98 0 3 0 C3 6.93 3 13.86 3 21 C2.01 20.67 1.02 20.34 0 20 C-1.25069801 17.49860398 -1.13302467 15.72607309 -1.125 12.9375 C-1.12757813 12.03902344 -1.13015625 11.14054687 -1.1328125 10.21484375 C-1 8 -1 8 0 7 C0.04092937 4.66702567 0.04241723 2.33294775 0 0 Z " fill="#0020E4" transform="translate(134,101)"/>
<path d="M0 0 C3.125 0.375 3.125 0.375 6 1 C6 3.31 6 5.62 6 8 C3.125 8.625 3.125 8.625 0 9 C-2 7 -2 7 -2.25 4.5 C-2 2 -2 2 0 0 Z " fill="#E8EFF6" transform="translate(128,110)"/>
<path d="M0 0 C1.32 0 2.64 0 4 0 C4 4.95 4 9.9 4 15 C2.68 15 1.36 15 0 15 C0 10.05 0 5.1 0 0 Z " fill="#0A27D6" transform="translate(142,107)"/>
<path d="M0 0 C0.99 0.66 1.98 1.32 3 2 C2.67 2.99 2.34 3.98 2 5 C0.948125 4.979375 -0.10375 4.95875 -1.1875 4.9375 C-4.32704904 4.98896802 -6.96883396 5.26517187 -10 6 C-10 3 -10 3 -8.375 1.3125 C-5.3525747 -0.35778767 -3.40886645 -0.36264537 0 0 Z " fill="#1332DB" transform="translate(70,106)"/>
<path d="M0 0 C1.98 0 3.96 0 6 0 C4.35 1.98 2.7 3.96 1 6 C3.64 6 6.28 6 9 6 C9 6.66 9 7.32 9 8 C6.02148438 8.29296875 6.02148438 8.29296875 3.04296875 8.5859375 C0.70011858 8.92665391 0.70011858 8.92665391 -2 11 C-2.28571429 3.57142857 -2.28571429 3.57142857 0 0 Z " fill="#0321D9" transform="translate(107,107)"/>
<path d="M0 0 C0.33 0 0.66 0 1 0 C1.33 2.64 1.66 5.28 2 8 C-0.375 8.625 -0.375 8.625 -3 9 C-3.66 8.34 -4.32 7.68 -5 7 C-8.58343976 6.83322718 -8.58343976 6.83322718 -12 7 C-12.33 6.01 -12.66 5.02 -13 4 C-9.04 4 -5.08 4 -1 4 C-0.67 2.68 -0.34 1.36 0 0 Z " fill="#E1EBF6" transform="translate(121,112)"/>
<path d="M0 0 C0.99 0 1.98 0 3 0 C3 4.95 3 9.9 3 15 C2.01 15 1.02 15 0 15 C0 10.05 0 5.1 0 0 Z " fill="#0021E8" transform="translate(169,107)"/>
<path d="M0 0 C1.32 0.33 2.64 0.66 4 1 C4 5.29 4 9.58 4 14 C2.68 13.67 1.36 13.34 0 13 C0.99 10.03 1.98 7.06 3 4 C2.01 3.67 1.02 3.34 0 3 C0 2.01 0 1.02 0 0 Z " fill="#0020E2" transform="translate(51,108)"/>
<path d="M0 0 C0.66 0 1.32 0 2 0 C2 0.66 2 1.32 2 2 C2.66 2 3.32 2 4 2 C3.34 5.96 2.68 9.92 2 14 C1.34 14 0.68 14 0 14 C0 9.38 0 4.76 0 0 Z " fill="#0025EC" transform="translate(94,107)"/>
<path d="M0 0 C2.97 0 5.94 0 9 0 C9.33 1.32 9.66 2.64 10 4 C6.7 4 3.4 4 0 4 C0 2.68 0 1.36 0 0 Z " fill="#CFD9F0" transform="translate(42,110)"/>
<path d="M0 0 C5.75 0.875 5.75 0.875 8 2 C8.33 2.66 8.66 3.32 9 4 C5.21812119 5.83691257 3.05431692 6.15837626 -1 5 C-0.34 4.67 0.32 4.34 1 4 C0.67 2.68 0.34 1.36 0 0 Z " fill="#1836D4" transform="translate(126,117)"/>
<path d="M0 0 C0.66 0 1.32 0 2 0 C2.33 0.99 2.66 1.98 3 3 C4.98 3 6.96 3 9 3 C8.67 3.99 8.34 4.98 8 6 C6.02 6.33 4.04 6.66 2 7 C0 4 0 4 0 0 Z " fill="#112DD7" transform="translate(151,116)"/>
<path d="M0 0 C0 0.66 0 1.32 0 2 C-0.66 2 -1.32 2 -2 2 C-2.33 2.99 -2.66 3.98 -3 5 C-4.98 5 -6.96 5 -9 5 C-9 4.01 -9 3.02 -9 2 C-5.86501708 0.14223235 -3.62528568 -0.20140476 0 0 Z " fill="#1C38D3" transform="translate(181,106)"/>
<path d="M0 0 C0.99 0.33 1.98 0.66 3 1 C3 4.96 3 8.92 3 13 C2.34 13 1.68 13 1 13 C0.67 8.71 0.34 4.42 0 0 Z " fill="#0027F3" transform="translate(179,108)"/>
<path d="M0 0 C0 0.99 0 1.98 0 3 C-2.97 3.66 -5.94 4.32 -9 5 C-8.67 3.68 -8.34 2.36 -8 1 C-5.07175348 0.02391783 -3.04386724 -0.08226668 0 0 Z " fill="#132ED1" transform="translate(160,106)"/>
<path d="M0 0 C1.65 0.33 3.3 0.66 5 1 C4.67 2.32 4.34 3.64 4 5 C2.35 5 0.7 5 -1 5 C-0.67 3.35 -0.34 1.7 0 0 Z " fill="#D7E2F5" transform="translate(155,115)"/>
<path d="M0 0 C1.65 0.33 3.3 0.66 5 1 C4.67 2.32 4.34 3.64 4 5 C2.35 4.67 0.7 4.34 -1 4 C-0.67 2.68 -0.34 1.36 0 0 Z " fill="#DCE7F6" transform="translate(46,115)"/>
<path d="M0 0 C2.0625 0.4375 2.0625 0.4375 4 1 C3.67 2.65 3.34 4.3 3 6 C2.67 5.01 2.34 4.02 2 3 C1.34 3 0.68 3 0 3 C0.33 4.98 0.66 6.96 1 9 C-0.5625 7.8125 -0.5625 7.8125 -2 6 C-1.57894737 1.57894737 -1.57894737 1.57894737 0 0 Z " fill="#2C44D2" transform="translate(151,113)"/>
<path d="M0 0 C-0.33 0.99 -0.66 1.98 -1 3 C-2.98 3.33 -4.96 3.66 -7 4 C-7.66 3.01 -8.32 2.02 -9 1 C-6.04335481 -0.4783226 -3.25770263 -0.06032783 0 0 Z " fill="#1733CB" transform="translate(51,119)"/>
<path d="M0 0 C0.33 0.99 0.66 1.98 1 3 C1.66 3.33 2.32 3.66 3 4 C2.67 6.31 2.34 8.62 2 11 C1.67 11 1.34 11 1 11 C1 9.35 1 7.7 1 6 C-0.65 6 -2.3 6 -4 6 C-4 5.34 -4 4.68 -4 4 C-2.68 4 -1.36 4 0 4 C0 2.68 0 1.36 0 0 Z " fill="#D3DDF1" transform="translate(102,106)"/>
<path d="M0 0 C0.7425 0.185625 1.485 0.37125 2.25 0.5625 C4.94990963 0.99203108 6.44631077 0.85122974 9 0 C9 1.32 9 2.64 9 4 C6.03 3.505 6.03 3.505 3 3 C3 2.34 3 1.68 3 1 C2.01 0.67 1.02 0.34 0 0 Z " fill="#3750C8" transform="translate(93,106)"/>
<path d="M0 0 C-0.33 0.99 -0.66 1.98 -1 3 C-3.31 3.33 -5.62 3.66 -8 4 C-7.67 3.01 -7.34 2.02 -7 1 C-2.25 0 -2.25 0 0 0 Z " fill="#1835D3" transform="translate(89,119)"/>
<path d="M0 0 C3.14624993 -0.26218749 4.61837017 -0.24754367 7.3125 1.5 C8.1478125 2.2425 8.1478125 2.2425 9 3 C8.67 3.66 8.34 4.32 8 5 C5.69 5 3.38 5 1 5 C1 4.34 1 3.68 1 3 C1.99 3 2.98 3 4 3 C4 2.34 4 1.68 4 1 C2.68 0.67 1.36 0.34 0 0 Z " fill="#253FCD" transform="translate(126,106)"/>
<path d="M0 0 C0.99 0.33 1.98 0.66 3 1 C3 3.31 3 5.62 3 8 C2.34 8 1.68 8 1 8 C0.67 5.36 0.34 2.72 0 0 Z " fill="#0021E5" transform="translate(60,111)"/>
<path d="M0 0 C2.31 0 4.62 0 7 0 C7 0.99 7 1.98 7 3 C5.02 3 3.04 3 1 3 C0.67 2.01 0.34 1.02 0 0 Z " fill="#EAF3F9" transform="translate(108,116)"/>
<path d="M0 0 C1.65 0 3.3 0 5 0 C5.33 0.99 5.66 1.98 6 3 C3.69 3 1.38 3 -1 3 C-0.67 2.01 -0.34 1.02 0 0 Z " fill="#EBF6FC" transform="translate(109,110)"/>
<path d="M0 0 C5.625 -0.25 5.625 -0.25 9 2 C8.67 2.99 8.34 3.98 8 5 C7.01 4.67 6.02 4.34 5 4 C5 3.34 5 2.68 5 2 C3.35 1.67 1.7 1.34 0 1 C0 0.67 0 0.34 0 0 Z " fill="#2B41C3" transform="translate(64,106)"/>
<path d="M0 0 C1.98 0 3.96 0 6 0 C6.33 1.65 6.66 3.3 7 5 C5.35 4.67 3.7 4.34 2 4 C2.66 3.34 3.32 2.68 4 2 C2.68 1.34 1.36 0.68 0 0 Z " fill="#465ED3" transform="translate(108,106)"/>
<path d="M0 0 C0.99 0.33 1.98 0.66 3 1 C3 2.32 3 3.64 3 5 C1.68 4.67 0.36 4.34 -1 4 C-0.67 2.68 -0.34 1.36 0 0 Z " fill="#0F29C1" transform="translate(143,99)"/>
</svg>
